<svg id="icons" xmlns="http://www.w3.org/2000/svg" viewBox="0 0 64 64"><title>gameboy</title><g id="gameboy"><path d="M43,62H14a3,3,0,0,1-3-3V5a3,3,0,0,1,3-3H50a3,3,0,0,1,3,3V52A10,10,0,0,1,43,62Z" fill="#f0ebe7"/><path d="M14,60a1,1,0,0,1-1-1V5a1,1,0,0,1,1-1H50a1,1,0,0,1,1,1V52a8,8,0,0,1-8,8Z" fill="#dbd0c8"/><path d="M43,62H14a3,3,0,0,1-3-3V5a3,3,0,0,1,3-3H50a3,3,0,0,1,3,3V52A10,10,0,0,1,43,62Z" fill="none" stroke="#544f4b" stroke-miterlimit="10" stroke-width="2"/><rect x="16" y="7" width="32" height="26" fill="none" stroke="#544f4b" stroke-miterlimit="10" stroke-width="2"/><circle cx="44" cy="42" r="3" fill="#dd7a7a"/><circle cx="37" cy="49" r="3" fill="#dd7a7a"/><line x1="40.75" y1="55.75" x2="43.25" y2="58.25" fill="none" stroke="#544f4b" stroke-miterlimit="10" stroke-width="2"/><line x1="43.75" y1="52.75" x2="46.25" y2="55.25" fill="none" stroke="#544f4b" stroke-miterlimit="10" stroke-width="2"/><line x1="46.75" y1="49.75" x2="49.25" y2="52.25" fill="none" stroke="#544f4b" stroke-miterlimit="10" stroke-width="2"/><rect x="17" y="8" width="30" height="24" fill="#7ccacb"/><rect x="18" y="9" width="28" height="22" fill="#5ca1a1"/><line x1="23" y1="18" x2="27" y2="14" fill="none" stroke="#7ccacb" stroke-linecap="round" stroke-miterlimit="10" stroke-width="2"/><line x1="23" y1="23" x2="25" y2="21" fill="none" stroke="#7ccacb" stroke-linecap="round" stroke-miterlimit="10" stroke-width="2"/><line x1="27" y1="19" x2="27" y2="19" fill="none" stroke="#7ccacb" stroke-linecap="round" stroke-miterlimit="10" stroke-width="2"/><line x1="29" y1="17" x2="32" y2="14" fill="none" stroke="#7ccacb" stroke-linecap="round" stroke-miterlimit="10" stroke-width="2"/><polygon points="29 44 25 44 25 40 21 40 21 44 17 44 17 48 21 48 21 52 25 52 25 48 29 48 29 44" fill="#544f4b"/></g></svg>