<?xml version="1.0" encoding="iso-8859-1"?>
<!-- Generator: Adobe Illustrator 19.0.0, SVG Export Plug-In . SVG Version: 6.00 Build 0)  -->
<svg version="1.1" id="Capa_1" xmlns="http://www.w3.org/2000/svg" xmlns:xlink="http://www.w3.org/1999/xlink" x="0px" y="0px"
	 viewBox="0 0 448 448" style="enable-background:new 0 0 448 448;" xml:space="preserve">
<path style="fill:#F9F9FA;" d="M416,432H32c-13.904,0-24-10.096-24-24V144h432v264C440,421.904,429.904,432,416,432z"/>
<path style="fill:#ABABAB;" d="M440,144H8V88c0-13.904,10.096-24,24-24h384c13.904,0,24,10.096,24,24V144z"/>
<rect x="312" y="110.616" style="fill:#F9C566;" width="64" height="201.36"/>
<polygon style="fill:#F0E8D2;" points="376,335.84 376,312 312,312 312,335.84 344,363.248 "/>
<rect x="312" y="64" style="fill:#CED8E0;" width="64" height="46.616"/>
<rect x="312" y="16" style="fill:#EAA7A7;" width="64" height="48"/>
<g>
	<path style="fill:#010101;" d="M416,56h-32V24c0-8.832-7.168-16-16-16h-48c-8.832,0-16,7.168-16,16v32H32C14.4,56,0,70.4,0,88v320
		c0,17.6,14.4,32,32,32h384c17.6,0,32-14.4,32-32V88C448,70.4,433.6,56,416,56z M320,24h48c0,10.672,0,21.328,0,32h-48
		C320,45.952,320,35.336,320,24z M320,120h48c0,72.192,0,144.408,0,216.504l-23.704,18.992L320,336.024
		C320,239.504,320,210.104,320,120z M320,104c0-9.92,0-20.536,0-32h48c0,10.672,0,21.328,0,32H320z M16,88c0-9.6,6.4-16,16-16h272
		c0,58.032,0,5.632,0,64H16V88z M432,408c0,9.6-6.4,16-16,16H32c-9.6,0-16-6.4-16-16V152h288v64H64v16h240v32H64v16h240v32H64v16
		h240v15.704L344.296,376L384,344.192V152h48V408z M432,136h-48c0-62.072,0-4.728,0-64h32c9.6,0,16,6.4,16,16V136z"/>
	<circle style="fill:#010101;" cx="176" cy="104" r="16"/>
	<circle style="fill:#010101;" cx="112" cy="104" r="16"/>
	<circle style="fill:#010101;" cx="48" cy="104" r="16"/>
	<rect x="256" y="360" style="fill:#010101;" width="64" height="16"/>
	<rect x="160" y="360" style="fill:#010101;" width="64" height="16"/>
	<rect x="64" y="360" style="fill:#010101;" width="64" height="16"/>
</g>
<g>
</g>
<g>
</g>
<g>
</g>
<g>
</g>
<g>
</g>
<g>
</g>
<g>
</g>
<g>
</g>
<g>
</g>
<g>
</g>
<g>
</g>
<g>
</g>
<g>
</g>
<g>
</g>
<g>
</g>
</svg>
