<svg height="511pt" viewBox="-13 0 511 511.99769" width="511pt" xmlns="http://www.w3.org/2000/svg" xmlns:xlink="http://www.w3.org/1999/xlink"><linearGradient id="a"><stop offset="0" stop-color="#662d91"/><stop offset=".437" stop-color="#3873b3"/><stop offset="1" stop-color="#00c9dd"/></linearGradient><linearGradient id="b" gradientTransform="matrix(.99744 0 0 -.99744 -12.802738 503.963391)" gradientUnits="userSpaceOnUse" x1="-119.2465" x2="308.4128" xlink:href="#a" y1="319.8459" y2="-107.8134"/><linearGradient id="c" gradientTransform="matrix(.99744 0 0 -.99744 -12.802738 503.963391)" gradientUnits="userSpaceOnUse" x1="26.6245" x2="454.2838" xlink:href="#a" y1="465.7169" y2="38.0576"/><linearGradient id="d" gradientTransform="matrix(.99744 0 0 -.99744 -12.802738 503.963391)" gradientUnits="userSpaceOnUse" x1="108.5856" x2="536.245" xlink:href="#a" y1="547.678" y2="120.0186"/><path d="m.640625 430.929688 4.277344 73.015624c.269531 4.527344 4.023437 8.058594 8.5625 8.050782h145.496093c4.535157.007812 8.289063-3.523438 8.558594-8.050782l4.28125-73.015624c1.882813-32.503907-16.835937-62.695313-46.792968-75.460938 27.039062-19.074219 33.5-56.453125 14.425781-83.488281-19.070313-27.039063-56.449219-33.5-83.488281-14.425781-27.039063 19.070312-33.5 56.449218-14.425782 83.488281 3.265625 4.628906 7.167969 8.769531 11.597656 12.304687-33.023437 11.023438-54.542968 42.828125-52.5 77.582032zm47.074219-124.339844c0-23.632813 19.15625-42.792969 42.792968-42.792969 23.632813 0 42.792969 19.160156 42.792969 42.792969 0 23.636718-19.160156 42.792968-42.792969 42.792968-23.625-.027343-42.765624-19.167968-42.792968-42.792968zm29.816406 59.910156h17.382812c33.085938-.003906 59.914063 26.816406 59.921876 59.902344 0 1.175781-.035157 2.351562-.105469 3.527344l-3.828125 64.953124h-129.359375l-3.820313-64.953124c-1.941406-33.03125 23.261719-61.382813 56.289063-63.324219 1.171875-.070313 2.347656-.105469 3.519531-.105469zm0 0" fill="url(#b)"/><path d="m291.636719 430.929688 4.277343 73.015624c.269532 4.527344 4.023438 8.058594 8.558594 8.050782h145.5c4.535156.007812 8.289063-3.523438 8.558594-8.050782l4.277344-73.015624c1.886718-32.503907-16.835938-62.695313-46.789063-75.460938 27.039063-19.074219 33.496094-56.453125 14.425781-83.488281-19.074218-27.039063-56.453124-33.5-83.492187-14.425781-27.035156 19.070312-33.496094 56.449218-14.421875 83.488281 3.261719 4.628906 7.167969 8.769531 11.59375 12.304687-33.019531 11.023438-54.542969 42.828125-52.496094 77.582032zm47.070312-124.339844c0-23.632813 19.160157-42.792969 42.792969-42.792969 23.636719 0 42.792969 19.160156 42.792969 42.792969 0 23.636718-19.15625 42.792968-42.792969 42.792968-23.621094-.027343-42.761719-19.167968-42.792969-42.792968zm29.820313 59.910156h17.382812c33.085938-.003906 59.914063 26.816406 59.917969 59.902344 0 1.175781-.03125 2.351562-.101563 3.527344l-3.828124 64.953124h-129.363282l-3.816406-64.953124c-1.941406-33.03125 23.257812-61.382813 56.289062-63.324219 1.171876-.070313 2.347657-.105469 3.519532-.105469zm0 0" fill="url(#c)"/><path d="m78.457031 14.609375c-14.734375.796875-27.300781 10.945313-31.179687 25.179687l-12.539063 45.988282c-4.980469 18.238281 5.765625 37.0625 24.003907 42.042968 2.207031.605469 4.464843.984376 6.746093 1.136719l29.160157 1.914063v30.222656c.027343 23.621094 19.171874 42.765625 42.792968 42.792969h11.597656l-3.039062 42.183593c-.285156 4.027344 2.28125 7.703126 6.152344 8.828126 3.875 1.121093 8.007812-.609376 9.921875-4.160157l25.246093-46.851562h82.085938l31.78125 55.632812c1.53125 2.652344 4.363281 4.285157 7.429688 4.277344.535156 0 1.070312-.050781 1.597656-.152344 3.582031-.691406 6.332031-3.578125 6.847656-7.191406l7.445312-52.136719 112.761719 6.253906c23.21875 1.203126 43.191407-16.265624 45.089844-39.4375l3.421875-44.179687c1.699219-23.304687-15.527344-43.699219-38.789062-45.917969l-65.53125-5.988281 2.421874-38.722656c.601563-9.75-2.988281-19.296875-9.859374-26.238281-6.929688-6.894532-16.449219-10.542969-26.207032-10.039063l-269.359375 14.546875zm58.984375 172.160156c-14.179687 0-25.675781-11.496093-25.675781-25.675781v-29.101562l42.203125 2.816406-3.6875 51.960937zm241.21875-67.707031 1.710938-26.882812 65.046875 5.914062c13.957031 1.316406 24.300781 13.550781 23.28125 27.53125l-3.425781 44.1875c-1.117188 13.902344-13.089844 24.394531-27.019532 23.675781l-120.601562-6.71875c-4.421875-.226562-8.296875 2.941407-8.949219 7.324219l-5.03125 35.226562-21.859375-38.273437c-1.535156-2.652344-4.367188-4.285156-7.429688-4.277344h-77.84375l22.886719-42.503906 123.167969 6.847656c18.777344 1.015625 34.867188-13.285156 36.066406-32.050781zm-29.957031-101.917969c4.898437-.351562 9.695313 1.496094 13.085937 5.042969 3.472657 3.441406 5.277344 8.21875 4.957032 13.09375l-5.132813 82.691406c-.648437 9.363282-8.664062 16.488282-18.035156 16.03125l-128.628906-7.144531c-3.324219-.226563-6.464844 1.535156-8.011719 4.484375l-40.992188 76.171875 5.734376-80.050781c.34375-4.714844-3.199219-8.816406-7.914063-9.160156-.027344 0-.054687-.003907-.082031-.003907l-97.054688-6.472656c-9.433594-.613281-16.585937-8.757813-15.972656-18.191406.074219-1.144531.261719-2.285157.566406-3.394531l12.617188-45.949219c1.941406-7.121094 8.226562-12.195313 15.59375-12.589844zm0 0" fill="url(#d)"/></svg>