<svg xmlns="http://www.w3.org/2000/svg" data-name="Layer 1" viewBox="0 0 64 80" x="0px" y="0px"><path d="M9.946,23.034,14,23.929a2.989,2.989,0,0,0,2.53-.594l2.4-1.932a3,3,0,0,0,1.046-1.688L21.7,11.9c-.186.01-.373.018-.562.018a11.367,11.367,0,0,1-2.455-.271L7.958,9.282l-1.64,7.424a3.011,3.011,0,0,0,.234,1.965L7.9,21.423A2.982,2.982,0,0,0,9.946,23.034Z"/><rect x="4" y="53" width="16" height="7"/><path d="M26.67,7.271l-10.6-2.342c-3.291-.728-6.416.343-7.541,2.43L19.11,9.7C22.41,10.424,25.544,9.356,26.67,7.271Z"/><rect x="4" y="49" width="15.998" height="2"/><path d="M50,23.929l4.051-.895A2.982,2.982,0,0,0,56.1,21.423l1.346-2.753a3.009,3.009,0,0,0,.234-1.965l-.444-2.011-5.509-3.673-9.477.644,1.779,8.05A3,3,0,0,0,45.077,21.4l2.4,1.932A2.978,2.978,0,0,0,50,23.929Z"/><path d="M52.555,9.168l4.06,2.707L55.84,8.366l-.647-1.827A3.819,3.819,0,0,0,51.6,4H49.528a3.845,3.845,0,0,0-.827.091l-3.98.884A3.8,3.8,0,0,0,41.8,9.366l.057.322L51.932,9A1,1,0,0,1,52.555,9.168Z"/><path d="M55.116,24.8a4.933,4.933,0,0,1-.631.187l-4.05.9A5.043,5.043,0,0,1,49.347,26c-.037,0-.073-.008-.11-.009C47.025,26.824,44,29.988,44,32v5a1,1,0,0,1-.581.908l-11.43,5.275A1.708,1.708,0,0,0,31,44.729a1.7,1.7,0,0,0,2.431,1.539l9.149-4.315a.78.78,0,0,1,.093-.031l0-.007L50,39.3V32h2v8a1,1,0,0,1-.664.942l-7.33,2.62L44,47H60V30.125A5.272,5.272,0,0,0,55.116,24.8Z"/><rect x="44.002" y="49" width="15.998" height="2"/><rect x="44" y="53" width="16" height="7"/><path d="M20,37l-.007-5c0-2.014-3.021-5.178-5.23-6.009-.037,0-.073.009-.11.009a5.043,5.043,0,0,1-1.088-.119l-4.05-.9a5.115,5.115,0,0,1-.632-.187A5.274,5.274,0,0,0,4,30.125V47H20l0-3.515L12.565,39.9A1,1,0,0,1,12,39V32h2v6.372l7.419,3.58h0L29.1,45.576a3.659,3.659,0,0,1,.869-3.335l-9.389-4.333A1,1,0,0,1,20,37Z"/><text x="0" y="79" fill="#000000" font-size="5px" font-weight="bold" font-family="'Helvetica Neue', Helvetica, Arial-Unicode, Arial, Sans-serif">Created by dDara</text><text x="0" y="84" fill="#000000" font-size="5px" font-weight="bold" font-family="'Helvetica Neue', Helvetica, Arial-Unicode, Arial, Sans-serif">from the Noun Project</text></svg>