<svg xmlns="http://www.w3.org/2000/svg" height="512pt" version="1.1" viewBox="0 -40 512.00021 512" width="512pt">
<g id="surface1">
<path d="M 287.140625 331.1875 C 298.878906 319.449219 306.175781 303.273438 306.175781 285.402344 C 306.175781 249.660156 277.09375 220.6875 241.246094 220.6875 C 205.402344 220.6875 176.320312 249.660156 176.320312 285.402344 C 176.320312 321.140625 205.402344 350.117188 241.246094 350.117188 C 259.226562 350.117188 275.402344 342.925781 287.140625 331.1875 Z M 501.480469 168.554688 L 456.964844 420.964844 L 55.667969 420.964844 L 10.621094 168.554688 Z M 501.480469 168.554688 " style=" stroke:none;fill-rule:nonzero;fill:rgb(0%,67.45098%,91.764706%);fill-opacity:1;" />
<path d="M 462.675781 56.253906 L 462.675781 168.554688 L 422.070312 168.554688 L 422.070312 98.339844 L 90.035156 98.339844 L 90.035156 168.554688 L 53.660156 168.554688 L 47.632812 10.363281 L 209.632812 10.363281 L 256.792969 56.253906 Z M 462.675781 56.253906 " style=" stroke:none;fill-rule:nonzero;fill:rgb(0%,93.72549%,81.960784%);fill-opacity:1;" />
<path d="M 422.070312 168.132812 L 422.070312 168.554688 L 90.035156 168.554688 L 90.035156 98.339844 L 422.070312 98.339844 Z M 422.070312 168.132812 " style=" stroke:none;fill-rule:nonzero;fill:rgb(99.607843%,85.882353%,25.490196%);fill-opacity:1;" />
<path d="M 287.140625 331.1875 C 275.402344 342.820312 259.222656 350.117188 241.355469 350.117188 C 205.507812 350.117188 176.429688 321.140625 176.429688 285.402344 C 176.429688 249.660156 205.507812 220.6875 241.355469 220.6875 C 277.203125 220.6875 306.28125 249.660156 306.28125 285.402344 C 306.175781 303.273438 298.878906 319.449219 287.140625 331.1875 Z M 287.140625 331.1875 " style=" stroke:none;fill-rule:nonzero;fill:rgb(0%,67.45098%,91.764706%);fill-opacity:1;" />
<path d="M 501.480469 157.558594 L 472.824219 157.558594 L 472.824219 56.253906 C 472.824219 50.441406 468.492188 45.46875 462.675781 45.46875 L 261.128906 45.46875 L 217.035156 2.855469 C 215.023438 0.953125 212.378906 0 209.632812 0 L 47.632812 0 C 44.777344 0 42.027344 1.058594 40.019531 3.171875 C 38.011719 5.289062 36.953125 7.824219 37.058594 10.679688 L 42.664062 157.558594 L 10.621094 157.558594 C 7.449219 157.558594 4.488281 159.144531 2.480469 161.574219 C 0.472656 164.007812 -0.375 167.285156 0.152344 170.351562 L 45.199219 422.867188 C 46.152344 427.941406 50.488281 431.539062 55.5625 431.539062 L 456.964844 431.539062 C 462.148438 431.539062 466.480469 427.945312 467.328125 422.867188 L 511.847656 170.351562 C 512.375 167.285156 511.527344 163.902344 509.519531 161.574219 C 507.507812 159.144531 504.550781 157.558594 501.480469 157.558594 Z M 58.628906 21.148438 L 205.402344 21.148438 L 249.496094 63.761719 C 251.503906 65.667969 254.148438 66.617188 256.898438 66.617188 L 451.675781 66.617188 L 451.675781 157.558594 L 432.644531 157.558594 L 432.644531 98.339844 C 432.644531 92.527344 427.886719 87.765625 422.070312 87.765625 L 90.035156 87.765625 C 84.21875 87.765625 79.460938 92.523438 79.460938 98.339844 L 79.460938 157.558594 L 63.917969 157.558594 Z M 411.496094 157.558594 L 100.609375 157.558594 L 100.609375 108.914062 L 411.496094 108.914062 Z M 448.082031 410.285156 L 64.550781 410.285156 L 23.3125 178.707031 L 488.898438 178.707031 Z M 448.082031 410.285156 " style=" stroke:none;fill-rule:nonzero;fill:rgb(3.137255%,21.960784%,38.823529%);fill-opacity:1;" />
<path d="M 301.628906 330.660156 C 311.460938 317.652344 316.855469 301.898438 316.855469 285.402344 C 316.855469 243.84375 283.015625 210.113281 241.351562 210.113281 C 199.691406 210.113281 165.851562 243.84375 165.851562 285.402344 C 165.851562 326.957031 199.691406 360.691406 241.351562 360.691406 C 257.957031 360.691406 273.605469 355.402344 286.613281 345.675781 L 317.699219 376.550781 C 319.816406 378.558594 322.460938 379.617188 325.207031 379.617188 C 327.957031 379.617188 330.601562 378.5625 332.714844 376.550781 C 336.839844 372.425781 336.839844 365.765625 332.714844 361.640625 Z M 187 285.402344 C 187 255.582031 211.429688 231.261719 241.351562 231.261719 C 271.277344 231.261719 295.707031 255.582031 295.707031 285.402344 C 295.707031 299.570312 290.207031 313 280.265625 323.152344 C 280.054688 323.363281 279.84375 323.46875 279.632812 323.679688 C 279.421875 323.890625 279.316406 324.101562 279.101562 324.316406 C 268.953125 334.148438 255.523438 339.542969 241.351562 339.542969 C 211.324219 339.542969 187 315.21875 187 285.402344 Z M 187 285.402344 " style=" stroke:none;fill-rule:nonzero;fill:rgb(3.137255%,21.960784%,38.823529%);fill-opacity:1;" />
</g>
</svg>