<?xml version="1.0" encoding="iso-8859-1"?>
<!-- Generator: Adobe Illustrator 19.0.0, SVG Export Plug-In . SVG Version: 6.00 Build 0)  -->
<svg version="1.1" id="Capa_1" xmlns="http://www.w3.org/2000/svg" xmlns:xlink="http://www.w3.org/1999/xlink" x="0px" y="0px"
	 viewBox="0 0 512 512" style="enable-background:new 0 0 512 512;" xml:space="preserve">
<polygon style="fill:#ECF0F1;" points="123.586,361.931 123.586,317.793 0,317.793 0,459.034 264.828,459.034 264.828,361.931 "/>
<rect y="247.172" style="fill:#687492;" width="123.586" height="70.621"/>
<path style="fill:#E64C3C;" d="M52.966,291.31H35.31c-4.873,0-8.828-3.946-8.828-8.828s3.955-8.828,8.828-8.828h17.655
	c4.873,0,8.828,3.946,8.828,8.828S57.838,291.31,52.966,291.31z"/>
<path style="fill:#F0C419;" d="M123.586,291.31h-35.31c-4.873,0-8.828-3.946-8.828-8.828s3.955-8.828,8.828-8.828h35.31
	c4.873,0,8.828,3.946,8.828,8.828S128.459,291.31,123.586,291.31z"/>
<path style="fill:#F29C1F;" d="M123.586,361.931H35.31c-4.873,0-8.828-3.946-8.828-8.828c0-4.882,3.955-8.828,8.828-8.828h88.276
	c4.873,0,8.828,3.946,8.828,8.828C132.414,357.985,128.459,361.931,123.586,361.931z"/>
<polygon style="fill:#D0D8D9;" points="247.172,264.828 247.172,220.69 123.586,220.69 123.586,361.931 388.414,361.931 
	388.414,264.828 "/>
<rect x="123.586" y="150.069" style="fill:#687492;" width="123.586" height="70.621"/>
<path style="fill:#FF5364;" d="M247.172,264.828h-88.276c-4.873,0-8.828-3.946-8.828-8.828s3.955-8.828,8.828-8.828h88.276
	c4.873,0,8.828,3.946,8.828,8.828S252.045,264.828,247.172,264.828z"/>
<path style="fill:#F29C1F;" d="M353.103,300.138H220.69c-4.873,0-8.828-3.946-8.828-8.828s3.955-8.828,8.828-8.828h132.414
	c4.873,0,8.828,3.946,8.828,8.828S357.976,300.138,353.103,300.138z"/>
<path style="fill:#F9EAB0;" d="M185.379,300.138h-26.483c-4.873,0-8.828-3.946-8.828-8.828s3.955-8.828,8.828-8.828h26.483
	c4.873,0,8.828,3.946,8.828,8.828S190.252,300.138,185.379,300.138z"/>
<path style="fill:#24AE5F;" d="M282.483,335.448H158.897c-4.873,0-8.828-3.946-8.828-8.828s3.955-8.828,8.828-8.828h123.586
	c4.873,0,8.828,3.946,8.828,8.828S287.356,335.448,282.483,335.448z"/>
<path style="fill:#E64C3C;" d="M353.103,335.448h-35.31c-4.873,0-8.828-3.946-8.828-8.828s3.955-8.828,8.828-8.828h35.31
	c4.873,0,8.828,3.946,8.828,8.828S357.976,335.448,353.103,335.448z"/>
<path style="fill:#8697CB;" d="M229.517,397.241H97.103c-4.873,0-8.828-3.946-8.828-8.828c0-4.882,3.955-8.828,8.828-8.828h132.414
	c4.873,0,8.828,3.946,8.828,8.828C238.345,393.295,234.39,397.241,229.517,397.241z"/>
<path style="fill:#4482C3;" d="M61.793,397.241H35.31c-4.873,0-8.828-3.946-8.828-8.828c0-4.882,3.955-8.828,8.828-8.828h26.483
	c4.873,0,8.828,3.946,8.828,8.828C70.621,393.295,66.666,397.241,61.793,397.241z"/>
<path style="fill:#24AE5F;" d="M158.897,432.552H35.31c-4.873,0-8.828-3.946-8.828-8.828c0-4.882,3.955-8.828,8.828-8.828h123.586
	c4.873,0,8.828,3.946,8.828,8.828C167.724,428.606,163.769,432.552,158.897,432.552z"/>
<path style="fill:#F0C419;" d="M229.517,432.552h-35.31c-4.873,0-8.828-3.946-8.828-8.828c0-4.882,3.955-8.828,8.828-8.828h35.31
	c4.873,0,8.828,3.946,8.828,8.828C238.345,428.606,234.39,432.552,229.517,432.552z"/>
<path style="fill:#E64C3C;" d="M176.552,194.207h-17.655c-4.873,0-8.828-3.946-8.828-8.828c0-4.882,3.955-8.828,8.828-8.828h17.655
	c4.873,0,8.828,3.946,8.828,8.828C185.379,190.261,181.425,194.207,176.552,194.207z"/>
<path style="fill:#F0C419;" d="M247.172,194.207h-35.31c-4.873,0-8.828-3.946-8.828-8.828c0-4.882,3.955-8.828,8.828-8.828h35.31
	c4.873,0,8.828,3.946,8.828,8.828C256,190.261,252.045,194.207,247.172,194.207z"/>
<rect x="247.172" y="123.586" style="fill:#ECF0F1;" width="264.828" height="141.241"/>
<rect x="247.172" y="52.966" style="fill:#687492;" width="264.828" height="70.621"/>
<path style="fill:#E64C3C;" d="M300.138,97.103h-17.655c-4.873,0-8.828-3.946-8.828-8.828c0-4.882,3.955-8.828,8.828-8.828h17.655
	c4.873,0,8.828,3.946,8.828,8.828C308.966,93.158,305.011,97.103,300.138,97.103z"/>
<path style="fill:#F0C419;" d="M353.103,97.103h-17.655c-4.873,0-8.828-3.946-8.828-8.828c0-4.882,3.955-8.828,8.828-8.828h17.655
	c4.873,0,8.828,3.946,8.828,8.828C361.931,93.158,357.976,97.103,353.103,97.103z"/>
<path style="fill:#24AE5F;" d="M406.069,97.103h-17.655c-4.873,0-8.828-3.946-8.828-8.828c0-4.882,3.955-8.828,8.828-8.828h17.655
	c4.873,0,8.828,3.946,8.828,8.828C414.897,93.158,410.942,97.103,406.069,97.103z"/>
<path style="fill:#4482C3;" d="M406.069,167.724H282.483c-4.873,0-8.828-3.946-8.828-8.828c0-4.882,3.955-8.828,8.828-8.828h123.586
	c4.873,0,8.828,3.946,8.828,8.828C414.897,163.778,410.942,167.724,406.069,167.724z"/>
<path style="fill:#E64C3C;" d="M476.69,167.724h-35.31c-4.873,0-8.828-3.946-8.828-8.828c0-4.882,3.955-8.828,8.828-8.828h35.31
	c4.873,0,8.828,3.946,8.828,8.828C485.517,163.778,481.562,167.724,476.69,167.724z"/>
<path style="fill:#F29C1F;" d="M476.69,203.034H344.276c-4.873,0-8.828-3.946-8.828-8.828s3.955-8.828,8.828-8.828H476.69
	c4.873,0,8.828,3.946,8.828,8.828C485.517,199.089,481.562,203.034,476.69,203.034z"/>
<path style="fill:#F0C419;" d="M308.966,203.034h-26.483c-4.873,0-8.828-3.946-8.828-8.828s3.955-8.828,8.828-8.828h26.483
	c4.873,0,8.828,3.946,8.828,8.828C317.793,199.089,313.838,203.034,308.966,203.034z"/>
<path style="fill:#8697CB;" d="M406.069,238.345H282.483c-4.873,0-8.828-3.946-8.828-8.828s3.955-8.828,8.828-8.828h123.586
	c4.873,0,8.828,3.946,8.828,8.828S410.942,238.345,406.069,238.345z"/>
<path style="fill:#CC66A1;" d="M476.69,238.345h-35.31c-4.873,0-8.828-3.946-8.828-8.828s3.955-8.828,8.828-8.828h35.31
	c4.873,0,8.828,3.946,8.828,8.828S481.562,238.345,476.69,238.345z"/>
<g>
</g>
<g>
</g>
<g>
</g>
<g>
</g>
<g>
</g>
<g>
</g>
<g>
</g>
<g>
</g>
<g>
</g>
<g>
</g>
<g>
</g>
<g>
</g>
<g>
</g>
<g>
</g>
<g>
</g>
</svg>
