<?xml version="1.0" encoding="iso-8859-1"?>
<!-- Generator: Adobe Illustrator 19.0.0, SVG Export Plug-In . SVG Version: 6.00 Build 0)  -->
<svg version="1.1" id="Capa_1" xmlns="http://www.w3.org/2000/svg" xmlns:xlink="http://www.w3.org/1999/xlink" x="0px" y="0px"
	 viewBox="0 0 512 512" style="enable-background:new 0 0 512 512;" xml:space="preserve">
<path style="fill:#98C9F0;" d="M341.333,10.667H96c-11.782,0-21.333,9.551-21.333,21.333v448c0,11.782,9.551,21.333,21.333,21.333
	h320c11.782,0,21.333-9.551,21.333-21.333V106.667L341.333,10.667z"/>
<path style="fill:#5684A8;" d="M341.333,10.667V96c0,5.891,4.776,10.667,10.667,10.667h85.333L341.333,10.667z"/>
<circle style="fill:#FFE26E;" cx="256" cy="234.667" r="74.667"/>
<path style="fill:#6D6E71;" d="M256,352L256,352c11.782,0,21.333,9.551,21.333,21.333v64c0,11.782-9.551,21.333-21.333,21.333l0,0
	c-11.782,0-21.333-9.551-21.333-21.333v-64C234.667,361.551,244.218,352,256,352z"/>
<g>
	<path style="fill:#3D3D3D;" d="M447.872,106.005c-0.062-0.941-0.248-1.87-0.555-2.763c-0.117-0.341-0.203-0.661-0.352-0.992
		c-0.519-1.161-1.242-2.219-2.133-3.125l-96-96c-0.906-0.892-1.965-1.614-3.125-2.133c-0.331-0.149-0.651-0.235-0.992-0.352
		c-0.892-0.306-1.821-0.493-2.763-0.555C341.76,0.117,341.557,0,341.333,0H96C78.327,0,64,14.327,64,32l0,0v448
		c0,17.673,14.327,32,32,32h320c17.673,0,32-14.327,32-32V106.667C448,106.443,447.883,106.24,447.872,106.005L447.872,106.005z
		 M411.584,96h-48.917C356.776,96,352,91.224,352,85.333V36.416L411.584,96z M416,490.667H96c-5.891,0-10.667-4.776-10.667-10.667
		V32c0-5.891,4.776-10.667,10.667-10.667h234.667v64c0,17.673,14.327,32,32,32h64V480C426.667,485.891,421.891,490.667,416,490.667z
		"/>
	<path style="fill:#3D3D3D;" d="M128,64h21.333v21.333H128V64z"/>
	<path style="fill:#3D3D3D;" d="M170.667,64h42.667v21.333h-42.667V64z"/>
	<path style="fill:#3D3D3D;" d="M128,106.667h85.333V128H128V106.667z"/>
	<path style="fill:#3D3D3D;" d="M256,149.333c-47.127,0.279-85.106,38.71-84.826,85.837c0.252,42.617,31.909,78.514,74.16,84.093
		v24.032c-12.74,4.504-21.277,16.525-21.333,30.037v64c0,17.673,14.327,32,32,32s32-14.327,32-32v-64
		c-0.056-13.512-8.594-25.533-21.333-30.037v-24.032c46.723-6.17,79.597-49.048,73.427-95.771
		C334.514,181.242,298.617,149.586,256,149.333L256,149.333z M266.667,437.333c0,5.891-4.776,10.667-10.667,10.667
		c-5.891,0-10.667-4.776-10.667-10.667v-64c0-5.891,4.776-10.667,10.667-10.667c5.891,0,10.667,4.776,10.667,10.667V437.333z
		 M256,298.667c-35.346,0-64-28.654-64-64s28.654-64,64-64s64,28.654,64,64C319.965,269.998,291.332,298.631,256,298.667z"/>
	<path style="fill:#3D3D3D;" d="M213.333,234.667h21.333c0-11.782,9.551-21.333,21.333-21.333V192
		C232.436,192,213.333,211.103,213.333,234.667z"/>
</g>
<g>
</g>
<g>
</g>
<g>
</g>
<g>
</g>
<g>
</g>
<g>
</g>
<g>
</g>
<g>
</g>
<g>
</g>
<g>
</g>
<g>
</g>
<g>
</g>
<g>
</g>
<g>
</g>
<g>
</g>
</svg>
