<?xml version="1.0" encoding="iso-8859-1"?>
<!-- Generator: Adobe Illustrator 19.0.0, SVG Export Plug-In . SVG Version: 6.00 Build 0)  -->
<svg version="1.1" id="Layer_1" xmlns="http://www.w3.org/2000/svg" xmlns:xlink="http://www.w3.org/1999/xlink" x="0px" y="0px"
	 viewBox="0 0 512.001 512.001" style="enable-background:new 0 0 512.001 512.001;" xml:space="preserve">
<path style="fill:#CEE8FA;" d="M403.015,296.471L264.5,108.591c-4.22-5.725-12.778-5.725-16.999,0l-138.515,187.88
	c-5.14,6.972-0.162,16.826,8.499,16.826h277.03C403.177,313.297,408.155,303.443,403.015,296.471z"/>
<path style="fill:#2D527C;" d="M413.693,288.598L275.18,100.718c-4.471-6.066-11.641-9.688-19.178-9.688s-14.707,3.621-19.178,9.688
	L156.992,209h-34.146L256.001,28.39l136.335,184.924c4.348,5.898,12.653,7.154,18.552,2.806c5.898-4.348,7.154-12.655,2.805-18.552
	L275.18,9.688C270.708,3.621,263.537,0,256.001,0s-14.707,3.621-19.178,9.688L98.308,197.568c-5.365,7.279-6.166,16.813-2.09,24.884
	c4.077,8.071,12.226,13.083,21.268,13.083h19.943l-39.121,53.063c-5.365,7.279-6.166,16.813-2.09,24.884
	c4.077,8.071,12.226,13.083,21.268,13.083h45.236V483.23c0,15.864,12.907,28.771,28.771,28.771h129.015
	c15.864,0,28.771-12.907,28.771-28.771v-88.805c0-15.864-12.907-28.771-28.771-28.771h-78.976c-7.326,0-13.268,5.94-13.268,13.268
	c0,7.328,5.941,13.268,13.268,13.268h78.976c1.233,0,2.236,1.003,2.236,2.236v88.805c0,1.233-1.003,2.236-2.236,2.236H191.493
	c-1.233,0-2.236-1.003-2.236-2.236V326.565h205.257c9.042,0,17.191-5.014,21.268-13.083
	C419.86,305.411,419.059,295.877,413.693,288.598z M122.846,300.03L256.001,119.42l133.154,180.61L122.846,300.03L122.846,300.03z"
	/>
<g>
</g>
<g>
</g>
<g>
</g>
<g>
</g>
<g>
</g>
<g>
</g>
<g>
</g>
<g>
</g>
<g>
</g>
<g>
</g>
<g>
</g>
<g>
</g>
<g>
</g>
<g>
</g>
<g>
</g>
</svg>
