<svg id="icons" xmlns="http://www.w3.org/2000/svg" viewBox="0 0 128 128"><defs><style>.cls-1{fill:#f54b55;}.cls-2{fill:#ffe300;}.cls-3{fill:#92d5ed;}.cls-4{fill:#303442;opacity:0.08;}.cls-5{fill:none;stroke:#303442;stroke-linecap:round;stroke-linejoin:round;stroke-width:4px;}</style></defs><title>stack</title><path class="cls-1" d="M91.59,75.01C101.54,79.43,106,81.95,106,86c0,4.53-5.54,7.14-18.06,12.61C76.43,103.64,70.32,106,64,106s-12.43-2.36-23.94-7.39C27.54,93.14,22,90.53,22,86c0-4.05,4.46-6.57,14.41-10.99,1.14.5,2.36,1.04,3.65,1.6C51.57,81.64,57.68,84,64,84s12.43-2.36,23.94-7.39C89.23,76.05,90.45,75.51,91.59,75.01Z"/><path class="cls-2" d="M91.59,53.01C101.54,57.43,106,59.95,106,64c0,4.06-4.46,6.58-14.41,11.01-1.14.5-2.36,1.04-3.65,1.6C76.43,81.64,70.32,84,64,84s-12.43-2.36-23.94-7.39c-1.29-.56-2.51-1.1-3.65-1.6C26.46,70.58,22,68.06,22,64c0-4.05,4.46-6.57,14.41-10.99,1.14.5,2.36,1.04,3.65,1.6C51.57,59.64,57.68,62,64,62s12.43-2.36,23.94-7.39C89.23,54.05,90.45,53.51,91.59,53.01Z"/><path class="cls-3" d="M87.94,29.4C100.46,34.87,106,37.48,106,42c0,4.06-4.46,6.58-14.41,11.01-1.14.5-2.36,1.04-3.65,1.6C76.43,59.64,70.32,62,64,62s-12.43-2.36-23.94-7.39c-1.29-.56-2.51-1.1-3.65-1.6C26.46,48.58,22,46.06,22,42c0-4.52,5.54-7.13,18.06-12.6C62.66,19.53,65.34,19.53,87.94,29.4Z"/><path class="cls-4" d="M102.99963,37.00372C100.66211,38.81134,96.9212,40.63641,91.59,43.01c-1.14.5-2.36005,1.04-3.65,1.6C76.43,49.64,70.32,52,64,52s-12.43-2.36-23.94-7.39c-1.29-.56-2.51-1.1-3.65-1.6-5.33117-2.3736-9.07208-4.19867-11.4096-6.00629C22.9762,38.5675,22,40.11829,22,42c0,4.06,4.46,6.58,14.41,11.01,1.14.5,2.36005,1.04,3.65,1.6C51.57,59.64,57.68,62,64,62s12.43-2.36,23.94-7.39c1.29-.56,2.51-1.1,3.65-1.6C101.54,48.58,106,46.06,106,42,106,40.11829,105.0238,38.5675,102.99963,37.00372Z"/><path class="cls-4" d="M102.99963,59.00372C100.66211,60.81134,96.9212,62.63641,91.59,65.01c-1.14.5-2.36005,1.04-3.65,1.6C76.43,71.64,70.32,74,64,74s-12.43-2.36-23.94-7.39c-1.29-.56-2.51-1.1-3.65-1.6-5.33117-2.3736-9.07208-4.19867-11.4096-6.00629C22.9762,60.5675,22,62.11829,22,64c0,4.06,4.46,6.58,14.41,11.01,1.14.5,2.36005,1.04,3.65,1.6C51.57,81.64,57.68,84,64,84s12.43-2.36,23.94-7.39c1.29-.56,2.51-1.1,3.65-1.6C101.54,70.58,106,68.06,106,64,106,62.11829,105.0238,60.5675,102.99963,59.00372Z"/><path class="cls-4" d="M102.99963,81.00372C100.66211,82.81134,96.9212,84.63641,91.59,87.01c-1.14.5-2.36005,1.04-3.65,1.6C76.43,93.64,70.32,96,64,96s-12.43-2.36-23.94-7.39c-1.29-.56-2.51-1.1-3.65-1.6-5.33117-2.3736-9.07208-4.19867-11.4096-6.00629C22.9762,82.5675,22,84.11829,22,86c0,4.06,4.46,6.58,14.41,11.01,1.14.5,2.36005,1.04,3.65,1.6C51.57,103.64,57.68,106,64,106s12.43-2.36,23.94-7.39c1.29-.56,2.51-1.1,3.65-1.6C101.54,92.58,106,90.06,106,86,106,84.11829,105.0238,82.5675,102.99963,81.00372Z"/><path class="cls-5" d="M91.59,75.01C101.54,79.43,106,81.95,106,86c0,4.53-5.54,7.14-18.06,12.61C76.43,103.64,70.32,106,64,106s-12.43-2.36-23.94-7.39C27.54,93.14,22,90.53,22,86c0-4.05,4.46-6.57,14.41-10.99"/><path class="cls-5" d="M36.41,53.01C26.46,57.43,22,59.95,22,64c0,4.06,4.46,6.58,14.41,11.01,1.14.5,2.36,1.04,3.65,1.6C51.57,81.64,57.68,84,64,84s12.43-2.36,23.94-7.39c1.29-.56,2.51-1.1,3.65-1.6C101.54,70.58,106,68.06,106,64c0-4.05-4.46-6.57-14.41-10.99"/><path class="cls-5" d="M36.41,53.01c1.14.5,2.36,1.04,3.65,1.6C51.57,59.64,57.68,62,64,62s12.43-2.36,23.94-7.39c1.29-.56,2.51-1.1,3.65-1.6C101.54,48.58,106,46.06,106,42c0-4.52-5.54-7.13-18.06-12.6-22.6-9.87-25.28-9.87-47.88,0C27.54,34.87,22,37.48,22,42,22,46.06,26.46,48.58,36.41,53.01Z"/></svg>